<?xml version="1.0" encoding="UTF-8"?>
<svg id="Layer_1" data-name="Layer 1" xmlns="http://www.w3.org/2000/svg" viewBox="0 0 354.33 412.29">
  <defs>
    <style>
      .cls-1 {
        fill: #fefae0;
        stroke-width: 0px;
      }
    </style>
  </defs>
  <path class="cls-1" d="M108.53,164.36c-16.89,0-30.23-2.96-40.01-8.89-9.78-5.92-16.89-13.26-21.34-22-4.44-8.74-6.74-18.23-6.89-28.45-.15-10.22.96-19.7,3.33-28.45,2.37-8.74,5.48-16.07,9.34-22,3.85-5.93,7.56-8.89,11.11-8.89,3.26,0,5.93,2.38,8,7.11,2.07,4.75,4.96,10,8.67,15.78,3.7,5.78,8.89,11.04,15.56,15.78,6.67,4.74,16.37,7.11,29.11,7.11,11.56,0,21.48-2.07,29.78-6.22,8.29-4.15,16.45-8.81,24.45-14,8-5.18,16.59-9.85,25.78-14,9.18-4.15,20.45-6.22,33.78-6.22s25.34,3.49,36,10.45c10.67,6.97,19.41,16,26.23,27.12,6.81,11.11,11.48,23.64,14,37.56,2.51,13.93,2.59,27.86.22,41.79-2.38,14.52-5.49,26.45-9.34,35.78-3.86,9.34-8.44,16.82-13.78,22.45-5.33,5.63-11.41,9.56-18.23,11.78-6.82,2.22-14.38,3.33-22.67,3.33s-15.78-2.07-22.45-6.22c-6.67-4.15-12.97-8.67-18.89-13.56-5.93-4.89-11.71-9.4-17.33-13.56-5.63-4.15-11.41-6.22-17.34-6.22-3.86,0-6.08,1.78-6.67,5.33-.6,3.56.29,8,2.67,13.34,2.37,5.33,6,11.11,10.89,17.33,4.89,6.22,10.74,12,17.56,17.34,6.81,5.33,14.29,9.78,22.45,13.33,8.15,3.56,16.67,5.33,25.56,5.33,13.33,0,23.18-.89,29.56-2.67,6.37-1.78,11.11-3.63,14.22-5.56,3.11-1.92,5.48-3.78,7.11-5.56,1.63-1.78,4.22-2.67,7.78-2.67,2.67,0,4.81,2.52,6.44,7.56,1.63,5.04,2.45,11.41,2.45,19.11s-.89,16-2.67,24.89c-1.78,8.89-4.97,17.19-9.56,24.89-4.6,7.71-10.82,14.08-18.67,19.11-7.85,5.04-17.56,7.56-29.11,7.56-13.04,0-24.52-2.96-34.45-8.89-9.93-5.92-18.6-13.4-26-22.45-7.41-9.04-13.78-18.74-19.11-29.12-5.33-10.37-10-20.07-14-29.11-4-9.04-7.71-16.52-11.11-22.45-3.41-5.93-6.74-8.89-10-8.89-4.15,0-7.33,2.67-9.56,8-2.22,5.33-3.33,11.86-3.33,19.56,0,8.89,1.26,16.89,3.78,24,2.51,7.11,5.33,13.56,8.44,19.34,3.11,5.78,5.93,10.97,8.45,15.56,2.51,4.6,3.78,8.97,3.78,13.11,0,9.19-2.44,15.04-7.33,17.56-4.89,2.52-11.04,3.78-18.45,3.78-4.15,0-10.89-.07-20.22-.22-9.34-.15-18.3-.22-26.89-.22-5.04,0-9.19-1.56-12.45-4.67-3.26-3.11-5.93-7.26-8-12.45-2.08-5.18-3.49-11.33-4.22-18.45-.74-7.11-1.11-14.67-1.11-22.67,0-15.11,1.85-29.26,5.56-42.45,3.7-13.18,8.45-24.67,14.22-34.45,5.78-9.78,12.15-17.56,19.11-23.34,6.96-5.78,13.85-8.67,20.67-8.67,5.33,0,10.67,2.67,16,8,5.33,5.33,10.81,12,16.45,20,5.63,8,11.34,16.67,17.12,26,5.78,9.34,11.78,18,18,26.01,6.22,8,12.74,14.67,19.56,20,6.81,5.33,13.78,8,20.89,8,3.56,0,5.33-1.63,5.33-4.89,0-2.07-1.85-4.74-5.56-8-3.71-3.26-8.38-7.11-14-11.56-5.63-4.45-11.64-9.48-18-15.11-6.38-5.63-12.38-11.78-18-18.45-5.63-6.67-10.3-13.85-14-21.56-3.71-7.7-5.56-16-5.56-24.89,0-5.92,1.56-10.89,4.67-14.89,3.11-4,8.37-6,15.78-6,4.74,0,8.89.67,12.45,2,3.56,1.33,6.96,2.74,10.22,4.22,3.26,1.49,6.67,2.89,10.22,4.22,3.56,1.33,7.85,2,12.89,2,7.11,0,13.7-3.03,19.78-9.11,6.07-6.07,11.26-13.7,15.56-22.89,4.29-9.18,7.56-19.04,9.78-29.56,2.22-10.52,2.96-20.37,2.22-29.56-.74-9.18-3.11-16.81-7.11-22.89-4-6.07-10-9.11-18-9.11s-14.82,2.45-21.34,7.33c-6.52,4.89-12.97,11.04-19.34,18.45-6.38,7.41-12.67,15.41-18.89,24-6.22,8.6-12.97,16.6-20.22,24-7.26,7.41-15.11,13.56-23.56,18.45-8.44,4.89-17.86,7.33-28.23,7.33Z"/>
</svg>