<?xml version="1.0" encoding="UTF-8"?>
<svg id="Layer_1" data-name="Layer 1" xmlns="http://www.w3.org/2000/svg" viewBox="0 0 1080 412.29">
  <defs>
    <style>
      .cls-1 {
        fill: #fefae0;
        stroke-width: 0px;
      }
    </style>
  </defs>
  <path class="cls-1" d="M108.53,164.36c-16.89,0-30.23-2.96-40.01-8.89-9.78-5.92-16.89-13.26-21.34-22-4.44-8.74-6.74-18.23-6.89-28.45-.15-10.22.96-19.7,3.33-28.45,2.37-8.74,5.48-16.07,9.34-22,3.85-5.93,7.56-8.89,11.11-8.89,3.26,0,5.93,2.38,8,7.11,2.07,4.75,4.96,10,8.67,15.78,3.7,5.78,8.89,11.04,15.56,15.78,6.67,4.74,16.37,7.11,29.11,7.11,11.56,0,21.48-2.07,29.78-6.22,8.29-4.15,16.45-8.81,24.45-14,8-5.18,16.59-9.85,25.78-14,9.18-4.15,20.45-6.22,33.78-6.22s25.34,3.49,36,10.45c10.67,6.97,19.41,16,26.23,27.12,6.81,11.11,11.48,23.64,14,37.56,2.51,13.93,2.59,27.86.22,41.79-2.38,14.52-5.49,26.45-9.34,35.78-3.86,9.34-8.44,16.82-13.78,22.45-5.33,5.63-11.41,9.56-18.23,11.78-6.82,2.22-14.38,3.33-22.67,3.33s-15.78-2.07-22.45-6.22c-6.67-4.15-12.97-8.67-18.89-13.56-5.93-4.89-11.71-9.4-17.33-13.56-5.63-4.15-11.41-6.22-17.34-6.22-3.86,0-6.08,1.78-6.67,5.33-.6,3.56.29,8,2.67,13.34,2.37,5.33,6,11.11,10.89,17.33,4.89,6.22,10.74,12,17.56,17.34,6.81,5.33,14.29,9.78,22.45,13.33,8.15,3.56,16.67,5.33,25.56,5.33,13.33,0,23.18-.89,29.56-2.67,6.37-1.78,11.11-3.63,14.22-5.56,3.11-1.92,5.48-3.78,7.11-5.56,1.63-1.78,4.22-2.67,7.78-2.67,2.67,0,4.81,2.52,6.44,7.56,1.63,5.04,2.45,11.41,2.45,19.11s-.89,16-2.67,24.89c-1.78,8.89-4.97,17.19-9.56,24.89-4.6,7.71-10.82,14.08-18.67,19.11-7.85,5.04-17.56,7.56-29.11,7.56-13.04,0-24.52-2.96-34.45-8.89-9.93-5.92-18.6-13.4-26-22.45-7.41-9.04-13.78-18.74-19.11-29.12-5.33-10.37-10-20.07-14-29.11-4-9.04-7.71-16.52-11.11-22.45-3.41-5.93-6.74-8.89-10-8.89-4.15,0-7.33,2.67-9.56,8-2.22,5.33-3.33,11.86-3.33,19.56,0,8.89,1.26,16.89,3.78,24,2.51,7.11,5.33,13.56,8.44,19.34,3.11,5.78,5.93,10.97,8.45,15.56,2.51,4.6,3.78,8.97,3.78,13.11,0,9.19-2.44,15.04-7.33,17.56-4.89,2.52-11.04,3.78-18.45,3.78-4.15,0-10.89-.07-20.22-.22-9.34-.15-18.3-.22-26.89-.22-5.04,0-9.19-1.56-12.45-4.67-3.26-3.11-5.93-7.26-8-12.45-2.08-5.18-3.49-11.33-4.22-18.45-.74-7.11-1.11-14.67-1.11-22.67,0-15.11,1.85-29.26,5.56-42.45,3.7-13.18,8.45-24.67,14.22-34.45,5.78-9.78,12.15-17.56,19.11-23.34,6.96-5.78,13.85-8.67,20.67-8.67,5.33,0,10.67,2.67,16,8,5.33,5.33,10.81,12,16.45,20,5.63,8,11.34,16.67,17.12,26,5.78,9.34,11.78,18,18,26.01,6.22,8,12.74,14.67,19.56,20,6.81,5.33,13.78,8,20.89,8,3.56,0,5.33-1.63,5.33-4.89,0-2.07-1.85-4.74-5.56-8-3.71-3.26-8.38-7.11-14-11.56-5.63-4.45-11.64-9.48-18-15.11-6.38-5.63-12.38-11.78-18-18.45-5.63-6.67-10.3-13.85-14-21.56-3.71-7.7-5.56-16-5.56-24.89,0-5.92,1.56-10.89,4.67-14.89,3.11-4,8.37-6,15.78-6,4.74,0,8.89.67,12.45,2,3.56,1.33,6.96,2.74,10.22,4.22,3.26,1.49,6.67,2.89,10.22,4.22,3.56,1.33,7.85,2,12.89,2,7.11,0,13.7-3.03,19.78-9.11,6.07-6.07,11.26-13.7,15.56-22.89,4.29-9.18,7.56-19.04,9.78-29.56,2.22-10.52,2.96-20.37,2.22-29.56-.74-9.18-3.11-16.81-7.11-22.89-4-6.07-10-9.11-18-9.11s-14.82,2.45-21.34,7.33c-6.52,4.89-12.97,11.04-19.34,18.45-6.38,7.41-12.67,15.41-18.89,24-6.22,8.6-12.97,16.6-20.22,24-7.26,7.41-15.11,13.56-23.56,18.45-8.44,4.89-17.86,7.33-28.23,7.33Z"/>
  <path class="cls-1" d="M613.94,340.39c.59,5.33-.96,9.93-4.67,13.78-3.71,3.86-8.22,5.93-13.56,6.22h-58.23c-5.04,0-9.71-1.78-14-5.33-4.3-3.56-5.71-7.85-4.22-12.89,4.45-17.48,8.15-36.45,11.11-56.9,2.96-20.45,4.59-40.96,4.89-61.57.29-20.59-.97-40.52-3.78-59.78-2.82-19.26-7.49-36.23-14-50.9-6.52-14.67-15.27-26.45-26.23-35.34-10.97-8.89-24.6-13.34-40.89-13.34-7.41,0-14.22,3.04-20.45,9.11-6.22,6.08-11.56,13.71-16,22.89-4.44,9.19-7.93,19.11-10.45,29.78-2.52,10.67-3.63,20.6-3.33,29.78.29,9.19,2.15,16.82,5.56,22.89,3.4,6.08,8.67,9.11,15.78,9.11,5.03,0,10.07-.52,15.11-1.56,5.03-1.04,9.92-2.15,14.67-3.33,4.74-1.18,9.34-2.29,13.78-3.33,4.44-1.04,8.44-1.56,12-1.56,5.33,0,10.29,1.49,14.89,4.44,4.59,2.97,6.89,7.41,6.89,13.34,0,8.3-2,14.97-6,20-4,5.04-8.97,9.04-14.89,12-5.93,2.96-12.38,5.33-19.34,7.11-6.97,1.78-13.41,3.86-19.34,6.22-5.93,2.38-10.89,5.26-14.89,8.67-4,3.41-6,8.22-6,14.45.59,10.67,2.29,19.93,5.11,27.78,2.81,7.86,5.85,14.75,9.11,20.67,3.26,5.93,6.22,10.97,8.89,15.11,2.67,4.15,4,7.71,4,10.67,0,9.49-2.52,15.41-7.56,17.78-5.04,2.38-11.11,3.56-18.23,3.56-4.45,0-11.34-.07-20.67-.22-9.34-.15-18.3-.22-26.89-.22-4.74,0-8.97-1.56-12.67-4.67-3.71-3.11-6.67-7.26-8.89-12.45-2.22-5.18-3.93-11.34-5.11-18.45-1.19-7.11-1.78-14.67-1.78-22.67,0-14.81,3.4-26.52,10.22-35.12,6.81-8.59,15.34-15.34,25.56-20.23,10.22-4.89,21.26-8.51,33.12-10.89,11.85-2.37,22.89-4.74,33.11-7.11,10.22-2.37,18.74-5.4,25.56-9.11,6.81-3.7,10.22-9.26,10.22-16.67,0-4.45-2.97-6.67-8.89-6.67s-12.15,1.04-18.67,3.11c-6.52,2.08-13.27,4.37-20.22,6.89-6.97,2.52-14.3,4.82-22,6.89-7.71,2.08-15.71,3.11-24,3.11-9.49,0-16.97-4.07-22.45-12.22-5.49-8.15-8.74-18.29-9.78-30.45-1.04-12.15.15-25.41,3.56-39.78,3.4-14.37,9.04-27.63,16.89-39.78,7.85-12.15,18.07-22.3,30.67-30.45,12.59-8.15,27.48-12.22,44.67-12.22,20.15,0,37.78,3.19,52.9,9.56,15.11,6.38,28.3,15.05,39.56,26,11.26,10.97,20.67,23.71,28.23,38.23,7.56,14.52,13.78,29.78,18.67,45.78,4.89,16,8.74,32.23,11.56,48.67,2.81,16.45,4.96,32.3,6.44,47.56,1.48,15.27,2.52,29.27,3.11,42.01.59,12.75,1.33,23.41,2.22,32Z"/>
  <path class="cls-1" d="M716.62,52.35c5.03.3,9.63,1.19,13.78,2.67,3.56,1.19,6.74,3.11,9.56,5.78,2.81,2.67,4.22,6.52,4.22,11.56s-1.56,10.82-4.67,17.34c-3.11,6.52-6.89,14.82-11.34,24.89-4.44,10.08-8.97,22.45-13.56,37.12-4.6,14.67-8.37,32.67-11.33,54.01-1.78,14.22-1.85,26.82-.22,37.78,1.63,10.97,4.22,20.67,7.78,29.11,3.56,8.45,7.7,15.86,12.45,22.23,4.74,6.38,9.26,12.15,13.56,17.33,4.29,5.19,7.92,9.86,10.89,14,2.96,4.15,4.44,8.44,4.44,12.89,0,6.22-1.33,10.82-4,13.78-2.67,2.97-5.63,5.04-8.89,6.22-3.85,1.48-8.15,1.92-12.89,1.33h-56.9c-7.41,0-13.71-.07-18.89-.22-5.19-.15-9.34-.81-12.45-2-3.11-1.18-5.33-3.11-6.67-5.78-1.33-2.67-2-6.37-2-11.11s2.89-11.56,8.67-20.45c5.78-8.89,12.07-19.34,18.89-31.34,6.81-12,13.11-25.34,18.89-40.01,5.78-14.67,8.67-30.15,8.67-46.45s-2.89-32.3-8.67-47.12c-5.78-14.82-12.08-28.23-18.89-40.23-6.82-12-13.11-22.23-18.89-30.67-5.78-8.45-8.67-14.59-8.67-18.45s.96-6.74,2.89-8.67c1.92-1.92,4.07-3.33,6.45-4.22,2.67-.89,5.63-1.33,8.89-1.33h68.9Z"/>
  <path class="cls-1" d="M844.19,361.28c-18.08,0-32.08-.22-42.01-.67-9.93-.45-17.19-2-21.78-4.67-4.6-2.67-7.26-6.74-8-12.22-.74-5.48-1.11-13.11-1.11-22.89,0-17.18,2.37-32.89,7.11-47.12,4.74-14.22,11.04-26.52,18.89-36.89,7.85-10.37,16.96-18.45,27.34-24.23,10.37-5.78,21.04-8.67,32-8.67,8,0,14.29.38,18.89,1.11,4.59.74,9.33,1.56,14.22,2.45,4.89.89,10.52,1.71,16.89,2.44,6.37.74,15.34,1.11,26.89,1.11,9.78,0,18.45-3.63,26-10.89,7.56-7.26,13.78-16.22,18.67-26.89,4.89-10.67,8.44-22.37,10.67-35.12,2.22-12.74,2.89-24.45,2-35.12-.89-10.67-3.41-19.63-7.56-26.89-4.15-7.26-10.08-10.89-17.78-10.89s-14.22,2.44-20.45,7.33c-6.22,4.89-12.38,11.04-18.45,18.45-6.08,7.41-12.15,15.41-18.23,24-6.08,8.6-12.52,16.6-19.34,24-6.82,7.41-14.3,13.56-22.45,18.45-8.16,4.89-17.27,7.33-27.34,7.33-16.3,0-29.11-2.96-38.45-8.89-9.34-5.93-16.08-13.26-20.23-22-4.15-8.74-6.3-18.23-6.44-28.45-.15-10.22.96-19.7,3.33-28.45,2.37-8.74,5.4-16.07,9.11-22,3.7-5.93,7.18-8.89,10.45-8.89s5.85,2.37,7.78,7.11c1.92,4.74,4.67,10,8.22,15.78,3.56,5.78,8.51,11.04,14.89,15.78,6.37,4.75,15.63,7.11,27.78,7.11,10.96,0,20.45-2.07,28.45-6.22,8-4.15,15.85-8.81,23.56-14,7.7-5.18,16-9.85,24.89-14,8.89-4.15,19.7-6.22,32.45-6.22s24.15,3.49,34.23,10.45c10.07,6.97,18.37,16,24.89,27.12,6.51,11.11,11.04,23.71,13.56,37.78,2.51,14.08,2.59,28.08.22,42.01-2.37,14.22-6.22,25.41-11.56,33.56-5.33,8.15-11.56,14.15-18.67,18-7.11,3.85-14.82,6.22-23.11,7.11-8.3.89-16.45,1.33-24.45,1.33s-17.63.08-28,.22c-10.38.15-20.82.89-31.34,2.22-10.52,1.33-20.75,3.71-30.67,7.11-9.93,3.41-18.75,8.22-26.45,14.45-7.71,6.22-13.86,14.22-18.45,24-4.6,9.78-6.89,21.93-6.89,36.45,0,9.49,2.15,17.56,6.44,24.23,4.29,6.67,10.59,10,18.89,10,7.4,0,14.22-2.44,20.45-7.33,6.22-4.89,12.37-11.04,18.45-18.45,6.07-7.4,12.15-15.4,18.23-24,6.07-8.59,12.52-16.59,19.34-24,6.81-7.4,14.29-13.56,22.45-18.45,8.15-4.89,17.26-7.33,27.34-7.33,16.29,0,29.12,2.97,38.45,8.89,9.34,5.93,16.07,13.27,20.23,22,4.15,8.74,6.29,18.23,6.44,28.45.15,10.22-.96,19.71-3.33,28.45-2.38,8.74-5.41,16.08-9.11,22-3.71,5.93-7.19,8.89-10.45,8.89-2.96,0-5.49-2.37-7.56-7.11-2.08-4.74-4.89-10-8.44-15.78-3.56-5.78-8.52-11.04-14.89-15.78-6.38-4.74-15.63-7.11-27.78-7.11-10.97,0-20.45,2.08-28.45,6.22-8,4.15-15.86,8.82-23.56,14-7.71,5.19-15.93,9.85-24.67,14-8.74,4.15-19.63,6.22-32.67,6.22Z"/>
</svg>